<svg xmlns="http://www.w3.org/2000/svg" xmlns:xlink="http://www.w3.org/1999/xlink" width="40" zoomAndPan="magnify" viewBox="0 0 30 30.000001" height="40" preserveAspectRatio="xMidYMid meet" version="1.0"><defs><clipPath id="537544b278"><path d="M 0.484375 0 L 29.515625 0 L 29.515625 29.03125 L 0.484375 29.03125 Z M 0.484375 0 " clip-rule="nonzero"/></clipPath><clipPath id="ba3c72f958"><path d="M 12 10.03125 L 20.804688 10.03125 L 20.804688 18 L 12 18 Z M 12 10.03125 " clip-rule="nonzero"/></clipPath><clipPath id="d712f9a7db"><path d="M 9.210938 11.921875 L 17.367188 11.921875 L 17.367188 18.726562 L 9.210938 18.726562 Z M 9.210938 11.921875 " clip-rule="nonzero"/></clipPath></defs><g clip-path="url(#537544b278)"><path fill="#ffffff" d="M 0.484375 0 L 29.515625 0 L 29.515625 29.03125 L 0.484375 29.03125 Z M 0.484375 0 " fill-opacity="1" fill-rule="nonzero"/><path fill="#ffffff" d="M 0.484375 0 L 29.515625 0 L 29.515625 29.03125 L 0.484375 29.03125 Z M 0.484375 0 " fill-opacity="1" fill-rule="nonzero"/></g><g clip-path="url(#ba3c72f958)"><path fill="#040606" d="M 17.542969 12.09375 C 18.59375 13.113281 18.847656 14.605469 18.335938 15.859375 L 17.507812 14.367188 L 16.882812 14.6875 L 18.25 17.152344 L 20.789062 15.824219 L 20.457031 15.222656 L 19.03125 15.96875 C 19.566406 14.5 19.238281 12.78125 18.03125 11.609375 C 16.605469 10.222656 14.433594 10.023438 12.773438 10.980469 L 13.285156 11.480469 C 14.664062 10.78125 16.398438 10.980469 17.542969 12.09375 " fill-opacity="1" fill-rule="nonzero"/></g><g clip-path="url(#d712f9a7db)"><path fill="#040606" d="M 17.226562 18.121094 L 16.714844 17.625 C 15.347656 18.335938 13.617188 18.132812 12.46875 17.019531 C 11.417969 16.003906 11.164062 14.511719 11.675781 13.253906 L 12.507812 14.746094 L 13.128906 14.429688 L 11.75 11.964844 L 9.210938 13.289062 L 9.542969 13.894531 L 10.96875 13.148438 C 10.433594 14.617188 10.761719 16.335938 11.96875 17.507812 C 13.394531 18.894531 15.578125 19.09375 17.226562 18.121094 " fill-opacity="1" fill-rule="nonzero"/></g></svg>