<svg xmlns="http://www.w3.org/2000/svg" xmlns:xlink="http://www.w3.org/1999/xlink" width="40" zoomAndPan="magnify" viewBox="0 0 30 30.000001" height="40" preserveAspectRatio="xMidYMid meet" version="1.0"><defs><clipPath id="155ae9ca03"><path d="M 3.386719 11 L 10 11 L 10 22.054688 L 3.386719 22.054688 Z M 3.386719 11 " clip-rule="nonzero"/></clipPath><clipPath id="fd38e14f15"><path d="M 11 6.8125 L 17 6.8125 L 17 20 L 11 20 Z M 11 6.8125 " clip-rule="nonzero"/></clipPath><clipPath id="04f4b5618c"><path d="M 18 12 L 26.613281 12 L 26.613281 22 L 18 22 Z M 18 12 " clip-rule="nonzero"/></clipPath></defs><g clip-path="url(#155ae9ca03)"><path fill="#000000" d="M 4.425781 18.777344 C 4.164062 19.117188 4.226562 19.601562 4.566406 19.863281 C 5.773438 20.800781 6.480469 21.207031 7.457031 21.765625 C 7.640625 21.871094 7.832031 21.980469 8.039062 22.101562 C 8.15625 22.171875 8.292969 22.207031 8.425781 22.207031 C 8.539062 22.207031 8.648438 22.179688 8.753906 22.132812 C 8.984375 22.027344 9.144531 21.8125 9.191406 21.5625 C 9.246094 21.246094 9.304688 20.925781 9.363281 20.617188 C 9.542969 19.636719 9.730469 18.625 9.796875 17.554688 C 9.824219 17.128906 9.5 16.761719 9.074219 16.734375 C 8.644531 16.707031 8.277344 17.03125 8.253906 17.460938 C 8.226562 17.894531 8.175781 18.320312 8.113281 18.746094 C 6.902344 16.273438 6.359375 15.109375 4.980469 11.859375 C 4.8125 11.464844 4.359375 11.28125 3.964844 11.449219 C 3.570312 11.617188 3.386719 12.070312 3.554688 12.464844 C 4.972656 15.808594 5.515625 16.96875 6.785156 19.554688 C 6.410156 19.308594 6.011719 19.023438 5.515625 18.640625 C 5.175781 18.378906 4.6875 18.441406 4.425781 18.777344 Z M 4.425781 18.777344 " fill-opacity="1" fill-rule="nonzero"/></g><g clip-path="url(#fd38e14f15)"><path fill="#000000" d="M 14.347656 19.570312 C 15.050781 18.921875 15.441406 18.382812 15.859375 17.816406 C 16.121094 17.453125 16.394531 17.078125 16.789062 16.613281 C 17.0625 16.289062 17.023438 15.800781 16.695312 15.523438 C 16.367188 15.25 15.878906 15.289062 15.601562 15.617188 C 15.308594 15.96875 15.074219 16.273438 14.867188 16.550781 C 15.273438 13.648438 15.664062 10.726562 16.023438 7.832031 C 16.039062 7.707031 16.027344 7.578125 15.988281 7.457031 C 15.859375 7.046875 15.425781 6.820312 15.019531 6.949219 C 14.675781 7.058594 14.460938 7.378906 14.476562 7.71875 C 14.109375 10.652344 13.71875 13.617188 13.300781 16.554688 C 13.171875 16.316406 13.042969 16.082031 12.914062 15.847656 C 12.707031 15.472656 12.238281 15.332031 11.863281 15.535156 C 11.488281 15.742188 11.347656 16.210938 11.550781 16.585938 C 12.066406 17.53125 12.605469 18.476562 13.15625 19.398438 C 13.277344 19.597656 13.480469 19.734375 13.710938 19.769531 C 13.746094 19.773438 13.785156 19.777344 13.820312 19.777344 C 14.015625 19.777344 14.203125 19.703125 14.347656 19.570312 Z M 14.347656 19.570312 " fill-opacity="1" fill-rule="nonzero"/></g><g clip-path="url(#04f4b5618c)"><path fill="#000000" d="M 26.460938 13.265625 C 26.722656 12.925781 26.667969 12.441406 26.332031 12.175781 C 25.992188 11.910156 25.507812 11.96875 25.242188 12.304688 C 24.265625 13.546875 23.160156 14.804688 22.085938 16.023438 C 21.429688 16.769531 20.761719 17.53125 20.113281 18.296875 L 20.214844 17.40625 C 20.265625 16.984375 19.957031 16.597656 19.535156 16.550781 C 19.109375 16.503906 18.726562 16.808594 18.675781 17.234375 L 18.269531 20.816406 C 18.242188 21.058594 18.328125 21.300781 18.507812 21.46875 C 18.652344 21.605469 18.84375 21.679688 19.039062 21.679688 C 19.082031 21.679688 19.125 21.675781 19.167969 21.667969 C 20.480469 21.449219 21.75 21.03125 22.9375 20.421875 C 23.320312 20.226562 23.46875 19.761719 23.273438 19.378906 C 23.078125 19 22.613281 18.847656 22.230469 19.042969 C 21.859375 19.234375 21.472656 19.40625 21.082031 19.554688 C 21.785156 18.710938 22.527344 17.871094 23.25 17.046875 C 24.335938 15.8125 25.457031 14.539062 26.460938 13.265625 Z M 26.460938 13.265625 " fill-opacity="1" fill-rule="nonzero"/></g></svg>