<svg xmlns="http://www.w3.org/2000/svg" xmlns:xlink="http://www.w3.org/1999/xlink" width="50" zoomAndPan="magnify" viewBox="0 0 37.5 37.499999" height="50" preserveAspectRatio="xMidYMid meet" version="1.0"><defs><clipPath id="c4bdb9670c"><path d="M 0 0 L 37.007812 0 L 37.007812 37.007812 L 0 37.007812 Z M 0 0 " clip-rule="nonzero"/></clipPath><clipPath id="52f9e80deb"><path d="M 2 4 L 35.765625 4 L 35.765625 33 L 2 33 Z M 2 4 " clip-rule="nonzero"/></clipPath><clipPath id="2ebf04c2ad"><path d="M 23 5 L 35.765625 5 L 35.765625 29 L 23 29 Z M 23 5 " clip-rule="nonzero"/></clipPath></defs><g clip-path="url(#c4bdb9670c)"><path fill="#ffffff" d="M 0 0 L 37.007812 0 L 37.007812 37.007812 L 0 37.007812 Z M 0 0 " fill-opacity="1" fill-rule="nonzero"/><path fill="#ffffff" d="M 0 0 L 37.007812 0 L 37.007812 37.007812 L 0 37.007812 Z M 0 0 " fill-opacity="1" fill-rule="nonzero"/></g><g clip-path="url(#52f9e80deb)"><path fill="#68c632" d="M 29.164062 27.1875 C 28.375 27.1875 27.582031 27.195312 26.789062 27.183594 C 26.601562 27.179688 26.480469 27.242188 26.355469 27.390625 C 21.558594 33.007812 13.011719 33.667969 7.402344 28.855469 C 1.546875 23.832031 0.988281 15.03125 6.15625 9.257812 C 11.128906 3.707031 19.832031 3.320312 25.292969 8.417969 C 27.847656 10.804688 29.277344 13.753906 29.628906 17.246094 C 29.757812 18.558594 29.675781 19.851562 29.429688 21.136719 C 29.394531 21.320312 29.417969 21.425781 29.566406 21.546875 C 31.3125 22.972656 33.078125 24.371094 34.949219 25.628906 C 35.207031 25.804688 35.34375 26.066406 35.535156 26.289062 C 35.757812 26.539062 35.339844 26.898438 35.003906 26.925781 C 34.226562 26.980469 33.449219 27.027344 32.671875 27.058594 C 31.5 27.105469 30.332031 27.136719 29.164062 27.175781 C 29.164062 27.179688 29.164062 27.183594 29.164062 27.1875 Z M 29.164062 27.1875 " fill-opacity="1" fill-rule="nonzero"/></g><path fill="#2c7865" d="M 15.988281 30.734375 C 22.828125 30.730469 28.351562 25.148438 28.351562 18.238281 C 28.351562 11.613281 22.871094 6.199219 16.148438 6.1875 C 9.335938 6.175781 3.796875 11.75 3.785156 18.601562 C 3.769531 25.851562 9.800781 30.789062 15.988281 30.734375 Z M 15.988281 30.734375 " fill-opacity="1" fill-rule="nonzero"/><path fill="#ffffff" d="M 12.734375 20.09375 C 12.066406 20.167969 11.503906 20.222656 10.941406 20.285156 C 10.453125 20.339844 9.964844 20.421875 9.476562 20.453125 C 9.035156 20.480469 8.867188 20.320312 8.84375 19.953125 C 8.804688 19.332031 8.90625 19.160156 9.371094 19.09375 C 11.113281 18.851562 12.867188 18.851562 14.621094 18.878906 C 14.96875 18.882812 15.113281 19.136719 14.945312 19.453125 C 14.832031 19.660156 14.679688 19.855469 14.519531 20.035156 C 13.34375 21.332031 12.164062 22.625 10.988281 23.917969 C 10.910156 24 10.835938 24.085938 10.738281 24.199219 C 11.609375 24.492188 12.371094 24.976562 13.203125 25.300781 C 13.621094 25.460938 14.003906 25.417969 14.378906 25.175781 C 14.9375 24.824219 15.28125 24.308594 15.527344 23.707031 C 15.703125 23.273438 15.847656 23.238281 16.277344 23.402344 C 16.488281 23.484375 16.558594 23.613281 16.53125 23.824219 C 16.46875 24.328125 16.398438 24.832031 16.207031 25.308594 C 15.832031 26.261719 14.703125 26.863281 13.507812 26.753906 C 13.015625 26.707031 12.539062 26.601562 12.078125 26.402344 C 11.164062 26.003906 10.207031 25.710938 9.257812 25.40625 C 9.128906 25.367188 8.988281 25.363281 8.851562 25.347656 C 8.515625 25.300781 8.421875 25.121094 8.574219 24.820312 C 8.734375 24.507812 8.996094 24.277344 9.226562 24.023438 C 10.289062 22.855469 11.347656 21.6875 12.402344 20.519531 C 12.5 20.414062 12.582031 20.292969 12.734375 20.09375 Z M 25.242188 19.195312 C 24.609375 17.816406 23.464844 17.238281 22.027344 17.144531 C 21.613281 17.117188 21.230469 17.230469 20.867188 17.414062 C 20.496094 17.601562 20.390625 17.839844 20.425781 18.261719 C 20.546875 19.6875 20.664062 21.109375 20.769531 22.539062 C 20.851562 23.664062 20.910156 24.792969 20.992188 25.921875 C 21.023438 26.339844 21.234375 26.476562 21.75 26.453125 C 22.234375 26.429688 22.375 26.3125 22.351562 25.863281 C 22.316406 25.136719 22.253906 24.414062 22.1875 23.691406 C 22.167969 23.480469 22.210938 23.386719 22.433594 23.339844 C 23.152344 23.195312 23.800781 22.875 24.363281 22.402344 C 25.019531 21.84375 25.445312 21.152344 25.414062 20.191406 C 25.421875 19.882812 25.394531 19.527344 25.242188 19.195312 Z M 23.558594 19.339844 C 23.898438 19.699219 23.925781 20.171875 23.621094 20.566406 C 23.246094 21.050781 22.738281 21.320312 22.15625 21.476562 C 22.007812 21.515625 21.972656 21.457031 21.960938 21.328125 C 21.894531 20.582031 21.828125 19.835938 21.757812 19.089844 C 21.726562 18.746094 21.992188 18.785156 22.195312 18.742188 C 22.707031 18.8125 23.1875 18.949219 23.558594 19.339844 Z M 20.175781 20.863281 C 20.011719 19.808594 19.574219 18.929688 18.589844 18.417969 C 17.339844 17.769531 16.027344 18.382812 15.714844 19.753906 C 15.515625 20.625 15.472656 21.511719 15.476562 22.398438 C 15.476562 23.105469 15.492188 23.125 16.183594 23.191406 C 16.675781 23.238281 16.777344 23.160156 16.785156 22.660156 C 16.789062 22.453125 16.871094 22.398438 17.050781 22.394531 C 17.449219 22.386719 17.851562 22.382812 18.25 22.351562 C 18.515625 22.328125 18.621094 22.40625 18.636719 22.679688 C 18.703125 23.761719 18.777344 24.84375 18.75 25.929688 C 18.730469 26.726562 18.730469 26.707031 19.5 26.714844 C 19.878906 26.714844 20.03125 26.558594 20.085938 26.203125 C 20.230469 25.28125 20.394531 24.359375 20.3125 23.5625 C 20.328125 22.5625 20.308594 21.710938 20.175781 20.863281 Z M 16.730469 21.277344 C 16.59375 21.277344 16.53125 21.234375 16.527344 21.078125 C 16.519531 20.597656 17.050781 19.824219 17.488281 19.679688 C 17.683594 19.613281 17.839844 19.644531 18 19.765625 C 18.433594 20.101562 18.550781 20.59375 18.648438 21.09375 C 18.683594 21.269531 18.566406 21.277344 18.441406 21.277344 C 18.15625 21.273438 17.871094 21.226562 17.59375 21.277344 C 17.300781 21.277344 17.015625 21.273438 16.730469 21.277344 Z M 19.40625 10.820312 C 19.300781 10.480469 19.125 10.1875 18.777344 10.042969 C 18.507812 9.929688 18.316406 10.019531 18.265625 10.308594 C 18.199219 10.675781 18.054688 11.015625 17.9375 11.363281 C 17.90625 11.457031 17.902344 11.597656 17.789062 11.613281 C 17.675781 11.628906 17.628906 11.496094 17.570312 11.414062 C 17.332031 11.089844 17.109375 10.753906 16.867188 10.429688 C 16.71875 10.234375 16.511719 10.175781 16.28125 10.257812 C 16.066406 10.332031 16.054688 10.519531 16.066406 10.714844 C 16.070312 10.796875 16.058594 10.878906 16.054688 10.957031 C 16.046875 11.71875 16.011719 12.484375 16.113281 13.242188 C 16.15625 13.585938 16.347656 13.730469 16.703125 13.738281 C 17.023438 13.742188 17.0625 13.511719 17.105469 13.277344 C 17.117188 13.210938 17.125 13.140625 17.140625 13.074219 C 17.195312 12.84375 17.09375 12.488281 17.28125 12.410156 C 17.464844 12.335938 17.679688 12.625 17.875 12.757812 C 18.15625 12.949219 18.308594 12.921875 18.511719 12.648438 C 18.609375 12.515625 18.660156 12.339844 18.832031 12.230469 C 18.867188 12.339844 18.90625 12.425781 18.921875 12.511719 C 18.96875 12.761719 18.992188 13.015625 19.039062 13.265625 C 19.082031 13.472656 19.1875 13.640625 19.429688 13.625 C 19.679688 13.613281 19.738281 13.429688 19.746094 13.210938 C 19.746094 13.128906 19.722656 13.035156 19.804688 12.949219 C 19.859375 13.042969 19.898438 13.128906 19.949219 13.203125 C 20.140625 13.488281 20.433594 13.625 20.746094 13.574219 C 21.078125 13.515625 21.046875 13.1875 21.066406 12.921875 C 21.070312 12.820312 21.074219 12.714844 21.066406 12.609375 C 21.054688 12.449219 21.101562 12.371094 21.285156 12.339844 C 21.820312 12.25 21.816406 12.238281 21.8125 12.769531 C 21.8125 12.886719 21.8125 13.003906 21.796875 13.117188 C 21.75 13.46875 21.898438 13.609375 22.242188 13.523438 C 22.535156 13.453125 22.691406 13.277344 22.722656 12.96875 C 22.808594 12.035156 22.753906 11.101562 22.636719 10.171875 C 22.582031 9.707031 22.410156 9.59375 21.941406 9.59375 C 21.472656 9.59375 21.011719 9.6875 20.539062 9.640625 C 20.152344 9.605469 20.011719 9.800781 19.925781 10.191406 C 19.808594 10.742188 19.742188 11.300781 19.691406 11.875 C 19.597656 11.523438 19.515625 11.167969 19.40625 10.820312 Z M 21.78125 11.417969 C 21.808594 11.894531 21.421875 11.738281 21.21875 11.742188 C 20.816406 11.75 21.050781 11.398438 21.011719 11.21875 C 20.9375 10.878906 21.21875 10.980469 21.378906 10.96875 C 21.804688 10.863281 21.769531 11.160156 21.78125 11.417969 Z M 10.933594 12.480469 C 10.933594 12.558594 10.945312 12.695312 10.84375 12.667969 C 10.472656 12.574219 10.183594 12.832031 9.847656 12.867188 C 9.640625 12.890625 9.457031 12.859375 9.367188 12.632812 C 9.175781 12.128906 9.429688 11.621094 9.941406 11.476562 C 10.007812 11.460938 10.074219 11.4375 10.136719 11.410156 C 10.53125 11.238281 10.667969 10.851562 10.5 10.390625 C 10.398438 10.113281 10.175781 10.050781 9.738281 10.171875 C 8.527344 10.511719 7.769531 12.0625 8.242188 13.238281 C 8.347656 13.507812 8.527344 13.707031 8.777344 13.84375 C 9.371094 14.175781 9.964844 14.125 10.554688 13.828125 C 10.746094 13.730469 10.902344 13.613281 11.167969 13.769531 C 11.554688 14 11.921875 13.738281 11.941406 13.277344 C 11.949219 12.976562 11.941406 12.675781 11.945312 12.378906 C 11.945312 12.269531 11.914062 12.109375 12.082031 12.113281 C 12.234375 12.113281 12.179688 12.265625 12.1875 12.359375 C 12.21875 12.703125 12.179688 13.050781 12.273438 13.390625 C 12.332031 13.609375 12.378906 13.84375 12.652344 13.859375 C 12.933594 13.875 13.035156 13.660156 13.109375 13.425781 C 13.230469 13.058594 13.226562 12.675781 13.265625 12.296875 C 13.332031 11.707031 13.25 11.121094 13.1875 10.539062 C 13.160156 10.277344 13.015625 10.0625 12.730469 10.0625 C 12.457031 10.058594 12.339844 10.277344 12.289062 10.515625 C 12.238281 10.742188 12.175781 10.964844 12.191406 11.199219 C 12.199219 11.296875 12.1875 11.390625 12.0625 11.40625 C 11.921875 11.417969 11.898438 11.316406 11.878906 11.207031 C 11.851562 11.027344 11.878906 10.839844 11.828125 10.65625 C 11.734375 10.34375 11.511719 10.285156 11.238281 10.320312 C 10.964844 10.355469 10.9375 10.570312 10.941406 10.789062 C 10.945312 11.054688 10.988281 11.316406 10.933594 11.601562 C 10.933594 11.882812 10.9375 12.183594 10.933594 12.484375 Z M 9.828125 15.246094 C 9.621094 15.050781 9.425781 14.722656 9.085938 14.863281 C 8.746094 15.003906 8.773438 15.382812 8.777344 15.683594 C 8.78125 16.605469 8.886719 17.523438 8.992188 18.4375 C 9.023438 18.734375 9.234375 18.804688 9.480469 18.8125 C 9.746094 18.820312 9.820312 18.660156 9.855469 18.421875 C 9.90625 18.015625 9.878906 17.601562 9.941406 17.183594 C 10.21875 17.636719 10.664062 17.925781 10.960938 18.34375 C 11.167969 18.640625 11.441406 18.640625 11.722656 18.574219 C 11.984375 18.511719 12.042969 18.273438 12.070312 18.03125 C 12.175781 17.082031 12.164062 16.125 12.191406 15.167969 C 12.203125 14.875 12.101562 14.597656 11.957031 14.34375 C 11.808594 14.085938 11.566406 14.050781 11.300781 14.109375 C 11.058594 14.160156 11.0625 14.316406 11.042969 14.539062 C 10.984375 15.21875 11.035156 15.898438 10.988281 16.679688 C 10.566406 16.148438 10.257812 15.644531 9.828125 15.246094 Z M 14.777344 14.597656 C 14.484375 14.296875 14.117188 14.175781 13.707031 14.277344 C 13.285156 14.382812 12.8125 14.585938 12.664062 14.957031 C 12.28125 15.894531 12.25 16.894531 12.632812 17.859375 C 12.988281 18.761719 14.175781 18.945312 14.808594 18.214844 C 15.246094 17.707031 15.441406 17.105469 15.429688 16.402344 C 15.445312 15.734375 15.273438 15.101562 14.777344 14.597656 Z M 13.464844 15.21875 C 13.546875 14.972656 13.664062 15.015625 13.804688 15.164062 C 14.300781 15.6875 14.324219 17.011719 13.851562 17.558594 C 13.664062 17.773438 13.519531 17.632812 13.410156 17.480469 C 13.203125 17.1875 13.179688 16.839844 13.1875 16.546875 C 13.179688 16.042969 13.320312 15.632812 13.464844 15.21875 Z M 13.554688 12.28125 C 13.5625 12.640625 13.554688 12.996094 13.582031 13.351562 C 13.59375 13.554688 13.71875 13.699219 13.945312 13.691406 C 14.152344 13.683594 14.238281 13.539062 14.253906 13.34375 C 14.265625 13.136719 14.285156 12.929688 14.289062 12.722656 C 14.289062 12.566406 14.347656 12.492188 14.511719 12.496094 C 14.625 12.5 14.738281 12.492188 14.851562 12.472656 C 15.046875 12.441406 15.125 12.523438 15.132812 12.714844 C 15.140625 12.945312 15.144531 13.175781 15.171875 13.402344 C 15.1875 13.570312 15.242188 13.734375 15.457031 13.714844 C 15.648438 13.703125 15.699219 13.546875 15.699219 13.390625 C 15.691406 12.621094 15.714844 11.84375 15.652344 11.078125 C 15.589844 10.296875 15.304688 10.089844 14.527344 10.109375 C 14.390625 10.113281 14.253906 10.132812 14.117188 10.144531 C 13.84375 10.171875 13.6875 10.3125 13.628906 10.59375 C 13.527344 11.097656 13.5625 11.601562 13.554688 12.109375 C 13.554688 12.167969 13.554688 12.222656 13.554688 12.28125 Z M 14.488281 11.152344 C 14.882812 11.15625 14.996094 11.285156 15.015625 11.765625 C 15.03125 12.109375 14.757812 11.984375 14.597656 12.011719 C 14.1875 12.078125 14.351562 11.734375 14.28125 11.542969 C 14.359375 11.417969 14.132812 11.144531 14.488281 11.152344 Z M 14.488281 11.152344 " fill-opacity="1" fill-rule="nonzero"/><path fill="#2c7865" d="M 32.421875 24.992188 C 32.402344 24.980469 32.386719 24.96875 32.367188 24.960938 C 31.308594 24.308594 30.246094 23.652344 29.1875 23 C 29.054688 22.917969 28.914062 22.839844 28.808594 22.898438 C 28.640625 22.882812 28.46875 23.046875 28.390625 23.242188 C 28.101562 23.953125 27.808594 24.664062 27.519531 25.371094 C 27.417969 25.621094 27.472656 25.824219 27.679688 25.867188 C 27.738281 25.910156 27.921875 25.90625 28.019531 25.902344 C 29.382812 25.84375 30.75 25.785156 32.113281 25.722656 C 32.527344 25.675781 32.820312 25.238281 32.421875 24.992188 Z M 32.421875 24.992188 " fill-opacity="1" fill-rule="nonzero"/><g clip-path="url(#2ebf04c2ad)"><path fill="#d7fcc3" d="M 24.085938 6.417969 C 23.621094 6.183594 24.027344 5.488281 24.488281 5.71875 C 25.613281 6.285156 26.652344 7.019531 27.566406 7.894531 C 31.089844 11.265625 32.375 16.503906 30.832031 21.148438 C 30.667969 21.640625 29.894531 21.429688 30.058594 20.9375 C 30.484375 19.660156 30.699219 18.332031 30.6875 16.984375 C 30.644531 12.511719 28.054688 8.40625 24.085938 6.417969 Z M 26.710938 28.851562 L 34.78125 28.382812 C 35.292969 28.351562 35.296875 27.546875 34.78125 27.574219 L 26.710938 28.046875 C 26.199219 28.074219 26.195312 28.882812 26.710938 28.851562 Z M 26.710938 28.851562 " fill-opacity="1" fill-rule="nonzero"/></g><path fill="#90d26d" d="M 17.472656 16.886719 C 17.300781 16.886719 17.15625 16.878906 17.144531 16.6875 C 17.132812 16.511719 17.257812 16.457031 17.40625 16.433594 C 18.570312 16.230469 19.730469 16.027344 20.890625 15.828125 C 22.433594 15.558594 23.976562 15.292969 25.523438 15.023438 C 25.566406 15.015625 25.613281 15 25.65625 14.996094 C 25.820312 14.996094 26.035156 14.90625 26.089844 15.148438 C 26.148438 15.417969 25.90625 15.429688 25.738281 15.460938 C 24.238281 15.726562 22.738281 15.980469 21.238281 16.238281 C 20.085938 16.4375 18.9375 16.640625 17.785156 16.835938 C 17.671875 16.855469 17.558594 16.871094 17.472656 16.886719 Z M 20.320312 28.074219 C 20.511719 28.0625 20.84375 28.125 20.816406 27.804688 C 20.792969 27.488281 20.476562 27.601562 20.28125 27.609375 C 19.300781 27.667969 18.320312 27.738281 17.339844 27.808594 C 16.003906 27.902344 14.664062 27.859375 13.332031 28.011719 C 13.15625 28.03125 12.941406 28.019531 12.972656 28.265625 C 13 28.480469 13.207031 28.4375 13.363281 28.429688 C 14.027344 28.390625 14.6875 28.347656 15.265625 28.3125 C 17.011719 28.335938 18.664062 28.167969 20.320312 28.074219 Z M 5.25 20.476562 C 6.070312 20.101562 6.894531 19.730469 7.707031 19.34375 C 7.859375 19.273438 7.898438 19.125 7.78125 18.964844 C 7.730469 18.894531 7.699219 18.804688 7.664062 18.722656 C 7.507812 18.371094 7.359375 18.300781 7.019531 18.464844 C 6.449219 18.75 5.878906 19.042969 5.320312 19.355469 C 5.113281 19.46875 4.914062 19.613281 4.800781 19.839844 C 4.664062 20.113281 4.894531 20.496094 5.183594 20.488281 C 5.207031 20.484375 5.230469 20.484375 5.25 20.476562 Z M 7.636719 16.023438 C 6.949219 15.65625 6.253906 15.304688 5.480469 15.152344 C 5.234375 15.105469 5.03125 15.207031 4.933594 15.464844 C 4.835938 15.734375 5.03125 15.84375 5.210938 15.945312 C 5.832031 16.292969 6.46875 16.59375 7.148438 16.808594 C 7.660156 16.964844 7.6875 16.90625 7.789062 16.351562 C 7.796875 16.214844 7.757812 16.089844 7.636719 16.027344 Z M 21.921875 14.414062 C 20.28125 14.695312 18.675781 15.113281 17.0625 15.507812 C 16.917969 15.542969 16.746094 15.609375 16.816406 15.808594 C 16.882812 16 17.042969 15.945312 17.195312 15.910156 C 18.824219 15.539062 20.441406 15.113281 22.097656 14.863281 C 22.238281 14.839844 22.328125 14.773438 22.351562 14.617188 C 22.292969 14.378906 22.113281 14.382812 21.917969 14.414062 Z M 6.339844 17.246094 C 6.121094 17.285156 5.90625 17.355469 5.925781 17.652344 C 5.949219 17.945312 6.144531 18.132812 6.449219 18.121094 C 6.699219 18.109375 6.953125 18.09375 7.195312 18.042969 C 7.429688 17.996094 7.5625 17.871094 7.539062 17.582031 C 7.5 17.105469 7.167969 17.210938 6.882812 17.191406 C 6.703125 17.207031 6.519531 17.214844 6.339844 17.246094 Z M 14.980469 8.75 L 14.386719 7.601562 C 14.230469 7.296875 13.773438 7.566406 13.933594 7.871094 C 14.128906 8.25 14.328125 8.636719 14.523438 9.015625 C 14.679688 9.320312 15.136719 9.050781 14.980469 8.75 Z M 16.175781 8.800781 L 16.175781 7.589844 C 16.175781 7.25 15.648438 7.25 15.648438 7.589844 L 15.648438 8.800781 C 15.648438 9.144531 16.175781 9.144531 16.175781 8.800781 Z M 17.363281 9.019531 C 17.566406 8.671875 17.769531 8.328125 17.972656 7.980469 C 18.144531 7.6875 17.6875 7.417969 17.515625 7.710938 C 17.3125 8.058594 17.109375 8.402344 16.90625 8.75 C 16.734375 9.046875 17.1875 9.3125 17.363281 9.019531 Z M 25.972656 23.160156 C 25.402344 23.574219 24.898438 24.054688 24.46875 24.605469 C 24.292969 24.40625 24.117188 24.207031 23.941406 24.007812 C 23.605469 23.621094 23.046875 24.1875 23.382812 24.570312 C 23.660156 24.886719 23.9375 25.203125 24.214844 25.515625 C 24.394531 25.722656 24.703125 25.636719 24.835938 25.4375 C 25.253906 24.820312 25.773438 24.28125 26.375 23.847656 C 26.785156 23.550781 26.390625 22.859375 25.972656 23.15625 Z M 25.972656 23.160156 " fill-opacity="1" fill-rule="nonzero"/></svg>