<svg width="206" height="192" viewBox="0 0 206 192" fill="none" xmlns="http://www.w3.org/2000/svg">
<path d="M96.5935 16.7927C97.4795 16.9283 98.3326 16.9283 99.1529 16.9283C99.9404 16.9622 100.695 16.9622 101.22 17.0979C101.909 17.2674 102.204 17.403 102.664 19.0644C102.467 19.1661 102.204 19.2679 101.975 19.3357L101.844 19.4035C101.122 19.6747 100.761 19.6747 99.7435 19.3357C98.6935 18.9966 98.6279 18.9288 97.906 18.149C97.742 17.9794 97.5779 17.776 97.381 17.5725C97.1185 17.2674 96.856 17.03 96.5935 16.7927ZM144.762 180.289C144.533 179.983 144.303 179.644 144.073 179.339C142.958 177.712 141.678 175.915 139.972 174.796C138.823 174.05 137.773 173.745 136.723 173.473L136.297 173.338C135.542 173.134 135.542 173.134 135.05 172.49C134.919 172.355 134.82 172.185 134.689 172.049C134.59 171.88 131.834 168.455 129.669 168.15C129.537 168.15 129.406 168.116 129.308 168.116C128.684 168.116 128.126 168.354 127.733 168.523C127.601 168.591 127.503 168.625 127.503 168.659C127.306 168.659 127.044 168.659 126.748 168.625C126.42 168.625 126.059 168.591 125.633 168.625C123.172 168.794 121.236 167.608 118.775 166.082L118.315 165.811C117.692 165.404 117.101 165.065 116.478 164.692C113.951 163.234 111.95 162.047 110.408 159.64C108.997 157.47 108.078 155.164 107.553 152.35C106.667 147.705 103.32 143.399 100.662 139.906L99.9732 139.059C99.4154 138.313 98.8576 137.533 98.4966 136.617C98.4638 136.448 98.431 136.109 98.3982 135.838C98.2998 134.956 98.2013 134.142 97.7748 133.532C96.9545 132.277 95.6091 131.803 94.3951 131.396C93.8701 131.192 93.3451 130.989 93.0498 130.819C92.2951 130.311 91.3107 130.413 90.6873 131.091C90.5888 131.192 90.5232 131.294 90.4576 131.396C89.8998 130.209 89.5388 129.497 89.2763 129.158C88.3576 127.87 87.2091 126.886 86.0935 125.903C85.1748 125.089 84.2888 124.309 83.5998 123.462C82.8123 122.411 82.2216 120.987 81.6638 119.63L81.3685 118.918C78.5466 112.069 75.9545 104.169 78.1529 97.2522C78.3826 96.5402 78.6451 95.8282 78.9404 95.0483C79.6623 93.0818 80.417 91.0135 80.581 88.8435C80.8107 86.0971 78.8091 82.1301 77.2998 80.5026C76.5779 79.7227 75.7904 79.2141 75.0357 78.6716C74.281 78.163 73.592 77.6883 73.0998 77.0441C72.1482 75.8235 72.1154 75.1793 72.0498 73.2466L72.017 73.0432C72.017 72.738 72.017 72.4329 72.017 72.1955C72.017 70.8732 71.9841 69.3813 70.606 67.9572C69.2935 66.601 68.2107 66.1263 67.3904 66.0585C66.9638 65.5499 66.242 64.6683 64.9951 63.0408L64.7654 62.7357C63.617 61.2099 62.9607 60.3622 62.4029 58.8365L62.2716 58.4635C61.9107 57.4463 61.4841 56.1579 60.3685 55.2763C59.6466 54.6999 58.7935 54.4626 58.1373 54.293C57.7763 54.1913 57.3498 54.0896 57.1857 53.954C56.8248 53.6149 56.6279 53.2419 56.3982 52.6994C55.906 51.6822 55.1841 50.1226 52.8545 49.614C49.5404 48.868 45.767 48.0204 41.7966 49.1393C41.567 49.2071 41.3373 49.2749 41.1076 49.3427C40.1888 49.5801 39.2373 49.8513 38.2201 50.2921C37.9576 50.4277 37.6623 50.5972 37.367 50.7668C37.1045 50.9363 36.6779 51.1737 36.481 51.2415C36.2513 51.038 36.0545 50.1226 35.9232 49.6479L35.8576 49.3088C35.7263 48.8002 35.431 48.3933 35.0045 48.1221C34.5779 47.8508 34.0529 47.783 33.5935 47.9186C33.3638 47.9865 33.1341 48.0543 32.9045 48.1221C31.067 48.5968 28.5732 49.241 27.4248 51.7161C26.4404 53.8183 27.7857 55.378 28.5404 56.2257C28.8029 56.5308 29.0982 56.8699 29.1966 57.1072C29.4263 57.7175 29.4263 57.7515 29.0982 58.9043C29.0654 58.9721 29.0654 59.0399 29.0326 59.1416C28.9341 58.8704 28.8357 58.5652 28.7045 58.1922C28.5732 57.7175 28.2451 57.3446 27.7857 57.1072C27.3591 56.8699 26.8341 56.836 26.3748 57.0055C25.2591 57.3785 23.9795 57.921 22.8638 59.0738C22.3716 59.6163 22.0763 60.2605 21.8138 60.803C21.7154 61.0065 21.5841 61.2438 21.5185 61.3794C21.3216 61.5151 20.8623 61.5829 20.3701 61.5829C20.5341 61.3455 20.6654 61.1082 20.7966 60.8708C21.092 60.3283 21.3873 59.8536 21.7154 59.4468C23.2248 57.6158 23.0935 56.124 22.667 55.2085C21.6826 52.9368 18.6638 52.6655 17.417 52.6655C16.3341 52.6316 15.3826 52.2926 14.267 51.8857C13.5123 51.6144 12.6591 51.2754 11.7404 51.0719C11.7404 51.038 11.7732 51.0041 11.806 50.9702C12.7904 49.4444 12.2982 47.8847 12.0029 46.9693C11.9373 46.7319 11.806 46.3251 11.8388 46.1894C11.8388 46.1216 11.8388 46.0538 11.8388 46.0538C11.9373 45.9182 12.331 45.7147 12.6591 45.5113C14.8248 44.2229 16.5966 43.4091 18.7295 43.2735C18.992 43.2396 19.2216 43.2396 19.4185 43.2396C21.4857 43.2396 22.4045 42.3241 22.667 40.0185C23.192 35.475 22.5029 34.8308 22.0107 34.424C21.1248 33.6102 19.8123 33.6441 17.1873 33.8815C16.8263 33.9154 16.5638 33.9493 16.4326 33.9493H14.7591C14.792 33.8815 14.8248 33.8475 14.8576 33.8136C15.2841 33.339 16.2685 33.339 17.2529 33.3729H17.581C17.8107 33.3729 18.0076 33.3729 18.2373 33.3729C19.4513 33.4407 21.1576 33.4746 22.6013 31.8471C23.7498 30.4908 24.4716 27.9479 23.5857 25.9813C23.0935 24.8963 22.0763 24.3538 21.3545 23.9469C21.2232 23.8791 21.0591 23.7774 20.8951 23.6757C21.1576 23.5061 21.5513 23.3366 21.7154 23.2349C22.2404 22.9976 22.831 22.7941 23.4545 22.5568C24.2091 22.3194 24.9638 22.0482 25.7513 21.6413C26.7029 21.1327 27.4904 20.4546 28.1795 19.8782C28.4091 19.6747 28.6388 19.4713 28.8685 19.2679C29.4591 18.7932 29.5576 18.7932 30.2795 18.7932C30.706 18.7932 31.2638 18.7932 32.0185 18.6576C32.806 18.5558 33.4951 18.2507 34.0857 18.0133C34.5779 17.8099 35.0045 17.6404 35.3654 17.5725C35.8576 17.5047 36.4154 17.5047 37.006 17.5047C37.6951 17.5047 38.3513 17.5386 39.0732 17.4369L39.3029 17.403C40.7795 17.2335 41.5013 17.1318 42.7154 17.5386C44.9795 18.2507 47.9654 19.0983 50.8529 19.0305C51.3779 19.0305 51.8045 18.9627 52.1982 18.9288C52.8873 18.861 53.2154 18.8271 53.806 18.9966C54.3638 19.1661 54.8888 19.3696 55.4795 19.573C56.431 19.9121 57.4154 20.285 58.4654 20.4885C61.156 21.0649 63.9123 21.5396 66.6029 21.9804C69.1623 22.4211 71.8529 22.8958 74.4451 23.4044C74.6091 23.4722 74.8716 23.5401 75.167 23.6418C76.7748 24.1504 77.9888 24.4894 79.006 24.0486C79.6295 23.8113 79.9904 23.3366 80.417 22.7941C80.5154 22.6585 80.6138 22.5229 80.7123 22.4211C80.8107 22.3533 81.0404 22.2516 81.2045 22.1499C81.4341 22.0482 81.6638 21.9125 81.8607 21.7769C82.3201 21.5057 82.8451 21.0649 83.4029 20.6241C83.9279 20.1833 84.8795 19.4374 85.2732 19.234C85.5357 19.3018 85.9295 19.5052 86.192 19.6408C86.6185 19.8443 87.0779 20.0477 87.5045 20.1833L87.6685 20.2511C89.5716 20.8276 90.3263 20.9632 92.3935 19.9121C92.8201 19.6747 93.542 19.3018 93.706 19.3018C93.7388 19.3018 94.0013 19.4374 94.7232 20.2172C94.9201 20.3868 95.0513 20.5902 95.2154 20.7258C96.167 21.8108 96.7576 22.3872 98.6607 22.9976C100.203 23.4722 101.417 23.6079 103.156 22.9636L103.287 22.8958C104.6 22.3872 107.094 21.4379 106.24 18.149C105.715 16.2163 104.961 14.1141 102.106 13.4021C101.154 13.1308 100.137 13.1308 99.1529 13.1308C97.5779 13.1308 96.5279 13.0969 96.0029 12.4527C95.642 12.0458 96.7576 9.50286 99.6779 6.62083C100.104 6.14614 100.597 5.9427 101.286 5.67145C101.712 5.46802 102.172 5.26458 102.697 4.95942C102.926 4.8577 103.123 4.72208 103.32 4.58645C104.501 3.90833 104.994 3.67098 105.65 3.90833C106.109 4.07787 106.339 4.38302 106.831 5.23068C107.028 5.56973 107.258 5.9088 107.52 6.28177C108.898 8.18052 111.064 8.41787 112.77 8.5874C113.59 8.68912 114.345 8.79083 114.87 8.99427C115.198 9.1638 115.526 9.29942 115.822 9.46895C116.708 9.94364 117.725 10.4522 118.906 10.6218C119.628 10.7235 120.219 10.7235 120.678 10.7235C121.629 10.7574 121.892 10.7574 122.647 11.3338C123.04 11.639 123.565 11.7746 124.058 11.7068C124.451 11.639 124.812 11.4355 125.075 11.1643C125.14 12.1136 125.37 13.1308 125.961 14.1141C126.125 14.4193 126.354 14.7244 126.551 15.0635C127.076 15.8094 127.634 16.6571 127.601 17.1996C127.569 17.5047 127.109 18.0133 126.65 18.5219C125.928 19.3018 125.042 20.2511 124.714 21.6413L124.615 21.9465C124.254 23.4383 123.894 24.9641 125.994 26.3204C127.044 27.0324 128.979 27.5071 129.964 27.6088C132.589 27.8801 134.394 25.9813 134.984 25.371C136.133 24.1504 136.887 23.0993 137.15 22.2516C137.379 21.6074 137.379 21.1327 137.412 20.8276C137.412 20.7936 137.412 20.7936 137.412 20.7597C137.412 20.7597 137.412 20.7597 137.445 20.7258C137.839 20.2172 138.79 19.8443 139.742 19.4713C140.365 19.234 141.022 18.9627 141.645 18.6236C142.531 18.1151 143.319 17.5047 144.073 16.8605C144.204 17.0301 144.336 17.1996 144.467 17.3691C144.926 17.9116 145.517 18.2507 146.075 18.5219C146.173 18.5897 146.337 18.6575 146.436 18.7254C146.403 19.3696 146.108 20.5902 145.944 21.2344C145.779 21.8447 145.648 22.3533 145.583 22.7941C145.484 23.3027 145.615 23.8452 145.944 24.286C146.239 24.6929 146.731 24.9641 147.223 24.998C148.7 25.1336 150.472 24.5233 152.309 23.8113L152.604 23.7096C152.769 23.6418 152.933 23.574 153.097 23.5061C153.261 23.7096 153.392 23.9469 153.49 24.0826C153.556 24.4216 153.392 24.9302 153.162 25.6422C152.965 26.1847 152.736 26.829 152.67 27.5071C152.604 28.0496 152.604 28.5921 152.604 29.0329C152.604 29.2702 152.604 29.6093 152.604 29.8127C152.047 29.9822 151.587 30.3891 151.358 30.9655C151.226 31.3046 151.194 31.6776 151.259 32.0166C151.029 32.1861 150.734 32.3557 150.537 32.4574C150.373 32.5591 150.209 32.6608 150.078 32.7286C149.979 32.7965 149.815 32.8982 149.651 32.966C148.962 33.339 148.109 33.7797 147.584 34.4918C147.354 34.8308 147.223 35.1699 147.158 35.4751C146.469 35.9837 145.583 36.2888 144.598 36.6279C143.319 37.0687 141.875 37.5772 140.562 38.6283C140.365 38.7979 140.169 38.8996 140.004 39.0352C139.381 39.4421 138.659 39.9507 138.101 40.7983C137.773 41.273 137.642 41.8155 137.544 42.1885C137.544 42.2224 137.511 42.2902 137.511 42.3241C137.347 42.5615 137.051 42.8327 136.756 43.104C136.133 43.6804 135.378 44.3585 134.853 45.4096C133.803 47.5118 132.786 50.0886 133.278 53.3097C133.278 53.4454 133.311 53.6149 133.311 53.7844C133.475 55.1068 133.639 56.8699 134.886 57.8532C135.345 58.2262 135.804 58.3618 136.165 58.4296C136.1 58.8365 136.034 59.3451 136.133 59.9215C137.051 64.5327 141.383 64.431 143.745 64.3971C144.008 64.3971 144.27 64.3632 144.533 64.3632C144.565 64.4988 144.598 64.6683 144.631 64.804C144.762 65.3804 144.959 66.1263 145.681 67.0418C147.289 69.0761 149.356 68.8388 150.701 68.7032C151.39 68.6015 151.981 68.5337 152.473 68.7032C152.769 68.8049 152.933 68.8727 153.031 68.9405C152.998 69.144 152.933 69.483 152.867 69.7204C152.637 70.8054 152.276 72.4329 153.129 74.1282C154.278 76.4338 156.936 77.8918 158.872 78.9429C159.101 79.0785 159.298 79.1802 159.528 79.3158C160.02 79.5871 160.644 79.621 161.201 79.3497C161.726 79.0785 162.12 78.5699 162.219 77.9596L162.415 76.8407C162.908 74.196 163.4 71.4496 163.433 68.6015C163.433 68.2285 163.4 67.8555 163.367 67.4486C163.334 67.2113 163.301 66.7705 163.301 66.4654C163.334 66.4315 163.4 66.4315 163.433 66.3976C163.859 66.1602 164.384 65.889 164.811 65.4143C165.565 64.5327 166.779 62.1932 167.042 60.9047C167.304 59.4807 166.878 58.2601 166.517 57.2768C166.353 56.836 166.222 56.3952 166.189 56.0561C166.189 55.8866 166.189 55.8866 166.287 55.4458L166.386 55.039C166.747 53.6488 167.436 50.1226 166.812 47.2744C166.714 46.8336 166.583 46.4607 166.451 46.1894C166.615 46.1216 166.878 46.0877 167.239 46.0199C168.584 45.8504 170.454 45.8165 171.439 46.1555C171.964 46.3251 172.456 46.8337 173.047 47.4779C173.44 47.9187 173.9 48.4272 174.458 48.868C176.098 50.1904 178.001 51.411 179.937 52.3604C179.117 54.3269 179.117 56.8021 179.937 59.4129C180.101 59.9215 180.495 60.3622 180.987 60.5657C181.479 60.7691 182.037 60.7691 182.529 60.4979C183.678 59.8876 184.925 59.2094 186.04 57.9888C186.5 57.4802 186.828 56.9377 187.09 56.463C187.287 56.1918 187.419 55.9205 187.583 55.7171C187.944 56.3613 188.239 57.0055 188.501 57.6497C188.633 57.9888 188.633 58.3279 188.633 58.8704C188.665 59.4129 188.665 60.0571 188.829 60.7691C189.19 62.261 190.175 63.2104 190.929 63.9902L191.225 64.2615C192.209 65.2786 193.062 66.3637 193.948 67.5165C195.458 69.483 197.033 71.5174 199.362 73.111C199.822 73.4161 200.281 73.6535 200.708 73.823C200.084 74.2977 199.001 74.908 197.197 75.7896L196.737 76.0269C196.409 76.1965 196.048 76.3321 195.687 76.4677C194.867 76.8407 193.948 77.2137 193.161 77.7901C192.537 78.2647 192.144 78.7733 191.783 79.1802C191.619 79.3837 191.454 79.5871 191.29 79.7566C191.061 79.9262 190.372 80.2652 189.847 80.5365C187.583 81.6893 186.073 82.5369 185.483 83.7236C183.547 86.4022 181.808 89.1147 181.512 92.6071C181.447 93.353 181.611 94.0651 181.808 94.7432C181.84 94.8788 181.873 95.0483 181.906 95.2179C181.414 95.3535 180.561 95.3874 180.069 95.4213C179.675 95.4552 179.248 95.4552 178.887 95.523L178.494 95.5569C176.951 95.7604 174.851 96.0316 173.572 97.7608C172.456 99.2527 172.587 101.016 172.719 102.44C172.751 102.948 172.817 103.491 172.751 103.864C172.456 103.864 172.128 103.898 171.767 103.932C170.454 104.135 166.353 105.186 164.712 107.526C163.4 109.357 162.94 111.628 162.514 113.832C162.251 115.087 162.022 116.274 161.661 117.223C160.873 119.223 159.954 121.461 158.544 123.021C157.92 123.767 157.165 124.377 156.345 125.055C154.245 126.751 151.883 128.717 151.719 132.65C151.62 135.431 151.915 138.143 152.211 140.72C152.276 141.296 152.342 141.839 152.408 142.381C152.079 142.008 151.981 141.873 151.85 141.771C150.242 140.313 150.045 140.11 149.914 138.516C149.783 136.787 149.553 134.176 146.895 133.193C146.304 132.989 145.714 132.956 145.189 132.922C144.959 132.922 144.565 132.888 144.434 132.854C144.139 132.752 143.778 132.583 143.384 132.379C142.662 132.04 141.842 131.633 140.923 131.498C137.642 130.989 137.15 133.634 137.019 134.481C136.953 134.719 136.92 134.922 136.854 135.092C136.494 134.854 135.969 134.413 135.608 134.108C134.525 133.193 133.409 132.277 132.064 132.277C131.769 132.277 131.769 132.277 129.734 133.057C129.504 133.159 129.308 133.193 129.176 133.227C128.487 133.43 127.962 133.634 127.044 134.346C126.814 134.515 126.453 134.685 126.092 134.82C125.37 135.159 124.451 135.566 123.762 136.38C122.942 137.397 122.712 138.923 122.515 140.11C122.45 140.381 122.417 140.618 122.384 140.822C121.925 142.992 121.597 145.23 121.4 147.467C121.072 151.299 121.334 154.622 122.22 158.012C122.286 158.317 122.351 158.724 122.45 159.131C122.647 160.216 122.876 161.471 123.434 162.488C124.189 163.742 125.272 164.183 126.158 164.522C126.289 164.556 126.453 164.624 126.617 164.692C131.145 166.591 134.197 163.234 135.837 161.471C136.001 161.267 136.165 161.098 136.329 160.928C136.953 160.284 137.675 159.538 138.233 158.69C138.298 158.589 138.364 158.487 138.397 158.351C138.429 158.385 138.462 158.385 138.462 158.385C138.725 158.453 138.954 158.521 139.119 158.589C139.742 158.724 139.939 158.928 139.972 158.894C139.972 158.962 139.939 159.097 139.84 159.368C139.808 159.504 139.775 159.538 139.775 159.538C139.742 159.572 139.709 159.606 139.644 159.64C139.086 160.114 138.429 160.725 138.233 162.318C138.134 163.166 138.2 163.98 138.265 164.692C138.298 165.336 138.364 165.98 138.265 166.421C138.233 166.557 138.167 166.658 138.069 166.862C137.773 167.438 137.15 168.693 138.265 170.354C139.217 171.778 141.153 172.321 142.498 172.626C143.154 172.761 143.778 172.558 144.237 172.083C144.27 172.049 144.303 172.016 144.336 171.948C144.664 172.185 144.729 172.524 144.894 173.168C145.484 175.677 145.779 177.339 145.779 179.577C145.779 180.39 145.812 181.102 145.944 181.814C145.55 181.374 145.189 180.865 144.762 180.289ZM95.806 143.636C96.0357 144.145 96.2654 144.653 96.4623 145.162C96.2654 144.755 96.0357 144.212 95.806 143.636ZM12.3966 66.7705C11.8388 67.3469 11.8388 67.3469 10.592 67.0757C11.3466 66.8044 12.1013 66.5332 12.8232 66.2619C12.692 66.4315 12.5279 66.6349 12.3966 66.7705ZM160.184 186.731L160.447 186.324C160.939 185.68 160.939 184.798 160.512 184.12C160.348 183.883 160.151 183.679 159.922 183.544C159.495 183.306 158.97 183.205 158.478 183.374C157.198 183.747 155.623 184.222 154.508 184.052C154.114 183.984 153.753 183.883 153.359 183.781C152.539 183.578 151.587 183.34 150.406 183.408C150.34 183.408 150.275 183.408 150.209 183.408C150.176 183.34 150.176 183.306 150.144 183.272C150.111 183.103 150.045 182.899 149.979 182.696C149.586 181.543 149.454 180.797 149.454 179.577C149.487 176.966 149.126 174.999 148.47 172.253C147.65 168.862 145.878 168.252 143.253 167.676C142.662 167.54 142.039 167.743 141.612 168.184C141.579 168.218 141.547 168.252 141.514 168.32C141.612 168.048 141.744 167.709 141.842 167.303C142.072 166.251 142.006 165.234 141.94 164.353C141.875 163.776 141.842 163.234 141.908 162.793C141.908 162.725 141.908 162.691 141.908 162.657C142.269 162.386 142.859 161.878 143.286 160.725C143.909 159.063 143.581 157.877 143.22 157.165C142.662 156.012 141.547 155.266 139.972 154.893C139.84 154.859 139.709 154.791 139.545 154.757C138.594 154.452 136.953 153.91 135.673 155.062C135.115 155.537 134.853 156.147 134.886 156.961C134.525 157.402 134.098 157.843 133.704 158.25C133.508 158.453 133.344 158.656 133.179 158.826C130.883 161.301 129.669 161.878 127.995 161.166C127.798 161.064 127.634 160.996 127.47 160.928C126.978 160.759 126.683 160.623 126.617 160.521C126.354 160.114 126.19 159.165 126.059 158.419C125.961 157.911 125.895 157.436 125.764 156.995C125.009 154.079 124.779 151.163 125.075 147.806C125.239 145.738 125.567 143.636 125.994 141.636C126.026 141.398 126.092 141.093 126.125 140.754C126.223 140.211 126.387 139.126 126.584 138.855C126.715 138.72 127.208 138.482 127.536 138.313C128.061 138.109 128.684 137.838 129.242 137.397C129.701 137.058 129.8 137.024 130.194 136.889C130.423 136.821 130.686 136.753 130.981 136.651C131.047 136.617 131.703 136.38 132.195 136.177C132.49 136.38 132.95 136.787 133.278 137.058C134.525 138.109 137.379 140.551 139.578 137.804C140.267 136.923 140.464 135.973 140.595 135.295C140.923 135.397 141.383 135.634 141.776 135.838C142.269 136.075 142.761 136.312 143.319 136.482C143.909 136.685 144.5 136.719 145.025 136.753C145.254 136.753 145.583 136.753 145.648 136.787C145.944 136.889 146.108 137.024 146.239 138.855C146.501 141.907 147.617 142.992 149.356 144.551C149.454 144.687 149.619 144.857 149.815 145.128C152.309 148.146 153.228 149.264 154.704 148.824C156.936 148.146 156.476 145.196 156.247 143.772C156.214 143.602 156.214 143.466 156.181 143.365C156.115 142.348 155.984 141.33 155.886 140.279C155.59 137.736 155.328 135.295 155.426 132.786C155.492 130.718 156.64 129.667 158.642 128.005C159.528 127.293 160.447 126.547 161.267 125.598C163.072 123.563 164.187 120.953 165.073 118.647C165.565 117.359 165.861 115.935 166.123 114.578C166.484 112.713 166.845 110.95 167.698 109.73C168.223 108.984 170.553 107.967 172.259 107.729C172.522 107.695 172.784 107.661 172.981 107.661C174.031 107.628 175.934 107.526 176.394 104.508C176.525 103.694 176.459 102.881 176.394 102.101C176.328 101.321 176.262 100.406 176.492 100.066C176.82 99.6257 178.1 99.4562 178.953 99.3544L179.412 99.2866C179.642 99.2527 179.937 99.2527 180.265 99.2188C181.939 99.151 184.728 99.0154 185.515 96.5402C185.811 95.6247 185.581 94.6415 185.351 93.7938C185.286 93.5226 185.187 93.0818 185.187 92.9462C185.384 90.5049 186.631 88.5044 188.272 86.2327C188.37 86.0971 188.469 85.9615 188.567 85.8258C188.633 85.7241 188.698 85.6224 188.731 85.5207C188.764 85.5207 188.764 85.5207 188.797 85.4868C189.289 85.0799 190.765 84.334 191.487 83.961C192.767 83.2829 193.39 82.9777 193.817 82.5369C194.112 82.2318 194.375 81.9266 194.572 81.6554C194.867 81.3163 195.064 81.079 195.294 80.9094C195.753 80.5704 196.442 80.2991 197.098 79.994C197.525 79.8244 197.951 79.621 198.345 79.4515L198.772 79.248C202.611 77.3832 205.039 75.7557 205.203 73.5857C205.367 71.3479 203.923 70.941 203.201 70.8393C202.939 70.7037 202.644 70.568 202.381 70.4324C201.987 70.2629 201.659 70.0933 201.397 69.9238C199.526 68.6693 198.214 66.974 196.836 65.143C195.917 63.9563 194.965 62.7018 193.817 61.549L193.489 61.2099C192.997 60.7352 192.504 60.2605 192.406 59.8536C192.34 59.5485 192.34 59.2094 192.34 58.8026C192.308 58.0905 192.308 57.2429 191.914 56.2596C191.487 55.039 190.864 53.954 190.306 52.9029C190.109 52.5299 189.912 52.1569 189.715 51.784C189.42 51.2415 188.895 50.8685 188.272 50.8007C187.681 50.7329 187.09 50.9702 186.697 51.4449C186.533 51.6144 186.303 51.784 186.073 52.0213C185.745 52.2586 185.384 52.5299 185.056 52.9029C184.597 53.4115 184.269 53.9879 183.973 54.4626C183.744 54.8355 183.547 55.1407 183.35 55.378C183.219 55.5136 183.12 55.6154 183.022 55.7171C182.989 54.6999 183.219 53.6149 183.973 52.8011C184.4 52.3265 184.564 51.6822 184.433 51.038C184.301 50.4277 183.875 49.9191 183.284 49.6818C181.053 48.8341 178.658 47.444 176.754 45.8843C176.394 45.613 176.065 45.2401 175.737 44.8671C174.95 44.0194 173.998 42.9683 172.522 42.4936C170.356 41.8155 167.337 42.1885 166.779 42.2563C165.598 42.3919 163.925 42.7649 163.104 44.0872C162.186 45.5791 162.744 46.9354 163.039 47.6474C163.137 47.8508 163.203 48.0204 163.236 48.156C163.597 49.7835 163.269 52.2926 162.809 54.0896L162.744 54.4286C162.579 54.9711 162.448 55.5476 162.514 56.3613C162.579 57.209 162.842 57.9549 163.072 58.5991C163.301 59.2433 163.498 59.7858 163.4 60.1927C163.301 60.6674 162.514 62.3288 162.12 62.8035C162.022 62.8713 161.858 62.9391 161.726 63.0069C161.201 63.3121 160.348 63.7529 159.922 64.6683C159.495 65.6177 159.594 66.7705 159.692 67.8216C159.725 68.0929 159.758 68.398 159.725 68.5336C159.725 70.6019 159.397 72.6024 159.036 74.7046C157.92 73.9926 156.804 73.2127 156.378 72.3311C156.181 71.9243 156.279 71.4157 156.476 70.6019C156.772 69.3135 157.461 66.2619 153.523 65.0413C152.342 64.6683 151.194 64.804 150.308 64.9057C148.995 65.0413 148.798 64.9735 148.503 64.6005C148.339 64.3971 148.306 64.3293 148.24 63.9563C148.142 63.6172 148.044 63.1426 147.814 62.5661L147.683 62.261C147.158 60.9725 146.469 60.4979 145.09 60.5657C144.762 60.5657 144.204 60.5657 143.647 60.5657C140.792 60.6335 140.037 60.3962 139.775 59.2433C139.808 59.1755 139.84 59.006 139.84 58.9043C140.004 58.2601 140.234 57.1411 139.545 56.0561C138.889 54.9711 137.773 54.8016 137.183 54.7338C137.084 54.3269 137.019 53.6827 136.986 53.3776C136.953 53.1402 136.953 52.9368 136.92 52.7333C136.658 51.0041 137.019 49.3766 138.134 47.1727C138.364 46.7319 138.758 46.359 139.217 45.9182C139.709 45.4774 140.267 44.9688 140.661 44.2907C140.923 43.8838 141.022 43.4769 141.12 43.1379C141.12 43.0701 141.153 42.9683 141.186 42.9005C141.317 42.6971 141.645 42.4597 142.006 42.2224C142.269 42.0529 142.564 41.8494 142.826 41.646C143.647 40.9679 144.697 40.6288 145.779 40.2558C147.256 39.7472 148.897 39.1708 150.275 37.7129C150.603 37.3738 150.734 37.0008 150.8 36.6618C150.964 36.5601 151.194 36.4583 151.325 36.3566C151.587 36.221 151.817 36.1193 152.014 35.9836C152.079 35.9158 152.211 35.8819 152.342 35.7802C153.261 35.2716 154.639 34.4579 155 32.966C155.033 32.8982 155.033 32.8304 155.065 32.7626C156.312 31.6776 156.312 29.9483 156.279 28.999C156.279 28.626 156.279 28.2869 156.312 28.0157C156.345 27.7105 156.476 27.3376 156.608 26.9307C157.001 25.8457 157.494 24.3877 156.936 22.7263C156.837 22.4211 155.426 19.8443 154.147 19.4374C153.129 19.0983 152.211 19.6408 151.62 19.9799C151.522 20.0477 151.423 20.1155 151.358 20.1494L151.029 20.2511C150.734 20.3529 150.308 20.5224 149.848 20.6919C150.176 19.234 150.275 18.0472 149.848 17.0301C149.389 16.0129 148.437 15.5043 147.748 15.1313C147.551 15.0296 147.289 14.894 147.223 14.8601C147.059 14.6566 146.862 14.1819 146.698 13.7751C146.567 13.5038 146.469 13.2325 146.337 12.9952C146.108 12.4866 145.648 12.1136 145.09 11.978C144.533 11.8763 143.975 12.0119 143.548 12.351C143.187 12.6561 142.826 12.9613 142.465 13.3004C141.579 14.0802 140.759 14.7922 139.873 15.3008C139.479 15.5043 138.987 15.7077 138.429 15.9111C137.117 16.4197 135.608 16.9961 134.558 18.3524C133.869 19.234 133.77 19.9799 133.737 20.6241C133.704 20.7936 133.704 20.8954 133.672 21.031C133.573 21.2344 133.147 21.8786 132.359 22.6924C131.309 23.7774 130.719 23.8791 130.292 23.8113C129.734 23.7774 128.651 23.4383 128.126 23.201C128.159 23.0993 128.192 22.9975 128.192 22.8958L128.29 22.5568C128.389 22.1499 128.815 21.6752 129.308 21.1666C130.128 20.285 131.145 19.1661 131.276 17.4708C131.408 15.5721 130.358 14.0124 129.57 12.8596C129.406 12.6222 129.242 12.351 129.078 12.1136C128.717 11.4694 128.717 10.6557 128.75 9.40115C128.783 8.99427 128.783 8.5874 128.783 8.18052C128.815 8.0788 128.815 7.94318 128.848 7.73973C128.979 5.9427 129.045 4.7899 128.389 3.97615C128.061 3.56927 127.437 3.06067 126.322 3.09458C125.764 3.09458 124.747 3.2302 124.123 4.01005C123.5 4.7899 123.533 5.70537 123.565 6.4513C123.565 6.58693 123.565 6.82427 123.565 6.92598C123.5 7.06162 123.401 7.19724 123.303 7.36677C122.351 6.9599 121.564 6.92598 120.776 6.92598C120.35 6.92598 119.923 6.89208 119.398 6.82427C118.808 6.75646 118.184 6.41739 117.462 6.07833C117.101 5.87489 116.708 5.67145 116.314 5.50192C115.297 5.06115 114.214 4.92552 113.164 4.8238C111.753 4.65427 110.834 4.51865 110.44 3.97615C110.276 3.7388 110.112 3.46755 109.948 3.2302C109.39 2.24692 108.603 0.958485 106.864 0.314273C104.567 -0.533381 102.795 0.517704 101.483 1.29755C101.319 1.39927 101.122 1.5349 100.958 1.63662C100.597 1.84005 100.236 1.97567 99.842 2.1452C99.0216 2.51817 98.0701 2.92505 97.1185 3.87443C94.9529 6.01052 90.2279 11.4016 93.2138 14.9618C93.3779 15.1652 93.542 15.3347 93.7388 15.5043C92.8201 15.5043 91.9013 15.9111 90.7529 16.4876C89.867 16.9622 89.867 16.9622 88.7185 16.5893L88.5545 16.5215C88.3904 16.4875 88.0295 16.318 87.7013 16.1485C86.8154 15.7416 85.9295 15.3347 85.0763 15.4026C83.6982 15.5043 82.3857 16.5893 81.106 17.6404C80.6795 17.9794 80.2529 18.3524 79.9904 18.5219C79.8591 18.5897 79.7279 18.6575 79.5638 18.7254C79.2029 18.8949 78.8091 19.1322 78.4482 19.4035C78.1201 19.6747 77.8248 20.0138 77.5623 20.3868C77.1357 20.2851 76.5779 20.1155 76.2498 20.0138C75.8232 19.8782 75.4623 19.7425 75.167 19.6747C72.5091 19.1322 69.8185 18.6576 67.1935 18.2168C64.5685 17.776 61.8123 17.3013 59.1873 16.7588C58.3998 16.5893 57.5795 16.2841 56.6935 15.979C56.1029 15.7416 55.4795 15.5382 54.8232 15.3347C53.5763 14.9618 52.6904 15.0635 51.8045 15.1313C51.5091 15.1652 51.1482 15.233 50.7545 15.233C48.4248 15.3008 45.8326 14.5549 43.831 13.8768C41.8295 13.2326 40.517 13.4021 38.8435 13.6394H38.6466C38.1545 13.7072 37.6295 13.7072 37.0716 13.7072C36.3498 13.7072 35.6279 13.6733 34.8404 13.809C34.0529 13.9107 33.331 14.2158 32.7076 14.4871C32.2482 14.6566 31.8216 14.86 31.4607 14.894C30.9685 14.9618 30.6076 14.9957 30.2138 14.9957C29.0654 14.9957 28.0482 15.0974 26.6045 16.2841C26.342 16.4876 26.0466 16.7249 25.7841 16.9622C25.1935 17.4708 24.6685 17.9455 24.1107 18.2168C23.5529 18.5219 22.9295 18.7254 22.2732 18.9627C21.5841 19.2 20.8623 19.4374 20.1404 19.8104C19.2216 20.2511 17.7123 20.9971 17.1873 22.5907C16.9904 23.201 16.8591 24.1504 17.417 25.3371C17.942 26.3882 18.8607 26.8968 19.6154 27.3036C19.8451 27.4393 20.1404 27.5749 20.2716 27.7105C20.3701 28.1174 20.1732 28.9312 19.8451 29.3041C19.6154 29.5754 19.4841 29.6093 18.3685 29.5754C18.106 29.5754 17.8435 29.5415 17.581 29.5415H17.2529C15.842 29.5415 13.7091 29.5415 12.1998 31.169C11.4123 32.0166 10.9857 33.1694 10.6248 34.1866C10.5263 34.5257 10.4279 34.8308 10.2966 35.0682C10.0341 35.6785 10.0998 36.3566 10.4279 36.8991C10.7888 37.4416 11.3466 37.7468 11.9701 37.7468H16.4326C16.6623 37.7468 16.9904 37.7468 17.5154 37.679C17.8763 37.6451 18.5654 37.5772 19.156 37.5433C19.156 38.1876 19.0904 38.9335 19.0248 39.4421C18.8607 39.4421 18.6966 39.4421 18.467 39.476C15.6451 39.6455 13.381 40.6966 10.8216 42.2224C9.67321 42.9005 8.36071 43.6804 8.16383 45.8504C8.0654 46.7319 8.3279 47.5118 8.49196 48.1221C8.55758 48.3255 8.65602 48.5968 8.68883 48.7663C8.5904 48.8002 8.52477 48.8341 8.42633 48.8341C7.73727 49.1054 5.86696 49.7157 5.86696 51.8179C5.86696 54.3947 8.8529 54.5982 9.96852 54.666C10.1654 54.6999 10.3951 54.6999 10.5263 54.7338C11.3795 54.8694 12.167 55.1407 13.0201 55.4797C14.267 55.9205 15.6779 56.4291 17.3513 56.463C18.1716 56.463 18.7623 56.5986 19.0904 56.7343C19.0248 56.8021 18.992 56.8699 18.9263 56.9377C18.3685 57.6158 17.9748 58.3279 17.6138 58.9382C17.3513 59.4468 17.0888 59.8876 16.7935 60.2605C16.4982 60.5996 15.7763 60.9047 15.0873 61.2099C14.8576 61.3116 14.6279 61.4133 14.3982 61.5151C11.9045 62.634 9.18102 63.5833 6.55602 64.4988C5.27633 64.9396 3.93102 65.3804 2.65133 65.8551C2.32321 65.7194 1.96227 65.6855 1.60133 65.7194C0.7154 65.8551 0.0591459 66.6688 0.0591459 67.6182C0.0591459 67.8216 0.026333 67.9911 0.026333 68.1607C-0.0392912 68.9744 -0.137729 70.6697 1.86383 71.5513C3.43883 72.2633 4.68571 71.5513 5.4404 71.1444C5.57164 71.0766 5.7029 71.0088 5.86696 70.9071C6.06383 70.8054 6.26071 70.7376 6.42477 70.6358C7.14664 70.2629 7.37633 70.1611 7.67164 70.1611C7.8029 70.1951 8.26227 70.3646 8.45914 70.4324C8.8529 70.568 9.14821 70.6697 9.41071 70.7037L9.83727 70.8054C11.4123 71.1444 13.0857 71.5174 15.0545 69.4152C15.5795 68.8727 16.006 68.2285 16.4326 67.5843C17.1216 66.5671 17.7123 65.6855 18.467 65.516C18.7951 65.4143 19.2873 65.4143 19.7795 65.4143C21.092 65.4143 22.6998 65.3804 24.0123 64.1936C24.5373 63.719 24.8654 63.0408 25.1279 62.4644C25.2263 62.2271 25.3904 61.8541 25.4888 61.7863C25.6201 61.6168 25.7841 61.5151 25.9482 61.3794C26.5716 62.9052 27.2935 63.9902 28.3435 64.4649C29.0326 64.7701 29.7873 64.7701 30.4435 64.431C31.5591 63.8885 31.9529 62.6001 32.4779 60.4979C32.5435 60.2944 32.5763 60.1588 32.6091 60.0232C33.0685 58.4974 33.2982 57.4802 32.6091 55.6832C32.281 54.8355 31.7232 54.1913 31.2638 53.6827C31.1326 53.5471 30.9685 53.3437 30.8373 53.1741C31.1982 52.6655 31.8545 52.3604 32.7732 52.0891C33.2982 53.4793 34.2826 55.0051 36.4482 55.039C37.4654 55.0729 38.417 54.5304 39.1716 54.0896C39.3685 53.9879 39.5654 53.8522 39.6966 53.7844C40.4513 53.4454 41.206 53.2419 42.0591 53.0046C42.2888 52.9368 42.5513 52.869 42.781 52.8011C45.8654 51.9196 49.0154 52.6316 52.067 53.3097C52.6576 53.4454 52.6904 53.5471 53.0513 54.3608C53.3795 55.039 53.8388 55.9883 54.8232 56.8699C55.6107 57.548 56.4966 57.7854 57.2185 57.9888C57.5466 58.0566 57.9732 58.1922 58.1045 58.294C58.367 58.4974 58.6295 59.2094 58.8263 59.7519L58.9576 60.1927C59.7451 62.3627 60.7623 63.6172 61.8779 65.1091L62.1076 65.3804C65.5857 69.9238 65.6513 69.9238 66.5373 70.0255C66.767 70.0255 66.9966 70.0255 67.1935 69.9577C67.3904 70.0933 67.6857 70.2968 67.981 70.6358C68.2763 70.941 68.3091 71.0427 68.342 72.1955C68.342 72.5007 68.342 72.8397 68.342 73.1788V73.4161C68.4404 75.5522 68.506 77.2137 70.2123 79.4176C71.0654 80.5365 72.1154 81.2485 73.0013 81.8588C73.6248 82.2996 74.2154 82.6726 74.642 83.1472C75.7904 84.3679 77.0045 87.2838 76.906 88.5383C76.7748 90.1658 76.1185 91.9629 75.4951 93.6921C75.1998 94.4719 74.9045 95.2518 74.642 96.0316C72.0498 104.169 74.8717 112.917 77.9888 120.41L78.2513 121.088C78.8748 122.648 79.5966 124.411 80.7451 125.869C81.631 126.988 82.681 127.903 83.6982 128.785C84.7154 129.667 85.667 130.514 86.3232 131.43C86.7826 132.142 89.0466 137.329 90.5232 140.788C91.3435 142.687 92.131 144.551 92.7216 145.874C93.5091 147.603 93.9685 148.654 94.6576 149.027C94.756 149.298 94.8216 149.57 94.8873 149.773C95.3466 151.028 95.7076 152.113 96.4951 152.791C97.4138 153.604 98.3326 153.74 99.1201 153.842C100.039 153.943 102.008 154.147 102.401 151.638L102.434 151.401C102.697 150.112 102.172 148.79 101.614 147.671C102.697 149.434 103.583 151.299 103.944 153.096C104.567 156.385 105.65 159.165 107.323 161.742C109.39 164.929 111.95 166.421 114.673 168.015C115.264 168.354 115.822 168.693 116.445 169.066L116.872 169.337C119.529 170.998 122.286 172.694 125.895 172.422C126.092 172.422 126.322 172.422 126.551 172.456C126.978 172.456 127.47 172.49 127.995 172.422C128.454 172.355 128.815 172.185 129.144 172.049C129.176 172.049 129.209 172.016 129.275 171.982C129.865 172.355 131.112 173.507 131.834 174.457C131.965 174.592 132.064 174.728 132.129 174.83C132.917 175.847 133.508 176.491 135.312 177L135.772 177.135C136.69 177.407 137.314 177.576 138.003 178.017C139.119 178.729 140.103 180.187 141.087 181.577C141.35 181.916 141.579 182.255 141.842 182.594C143.122 184.323 144.565 186.29 147.125 187.443C148.897 188.257 150.504 189.308 152.211 190.427L153.031 190.969C153.326 191.139 153.654 191.24 154.015 191.24C154.278 191.24 154.54 191.206 154.77 191.105C155.328 190.833 155.722 190.291 155.82 189.681C155.853 189.613 155.853 189.545 155.853 189.511C156.115 189.477 156.444 189.376 156.804 189.274C156.936 189.24 157.067 189.206 157.198 189.172C158.872 188.596 159.462 187.714 160.184 186.731Z" fill="#E53939"/>
</svg>
